<svg xmlns="http://www.w3.org/2000/svg">
    <symbol viewBox="0 0 50 50" id="circle-dots">
        <circle cx="25" cy="25" r="25" fill="#70E000" />
        <path
            d="M25 15C19.48 15 15 19.48 15 25C15 30.52 19.48 35 25 35C30.52 35 35 30.52 35 25C35 19.48 30.52 15 25 15ZM21 30.5C20.337 30.5 19.7011 30.2366 19.2322 29.7678C18.7634 29.2989 18.5 28.663 18.5 28C18.5 27.337 18.7634 26.7011 19.2322 26.2322C19.7011 25.7634 20.337 25.5 21 25.5C21.663 25.5 22.2989 25.7634 22.7678 26.2322C23.2366 26.7011 23.5 27.337 23.5 28C23.5 28.663 23.2366 29.2989 22.7678 29.7678C22.2989 30.2366 21.663 30.5 21 30.5ZM22.5 21C22.5 20.337 22.7634 19.7011 23.2322 19.2322C23.7011 18.7634 24.337 18.5 25 18.5C25.663 18.5 26.2989 18.7634 26.7678 19.2322C27.2366 19.7011 27.5 20.337 27.5 21C27.5 21.663 27.2366 22.2989 26.7678 22.7678C26.2989 23.2366 25.663 23.5 25 23.5C24.337 23.5 23.7011 23.2366 23.2322 22.7678C22.7634 22.2989 22.5 21.663 22.5 21ZM29 30.5C28.337 30.5 27.7011 30.2366 27.2322 29.7678C26.7634 29.2989 26.5 28.663 26.5 28C26.5 27.337 26.7634 26.7011 27.2322 26.2322C27.7011 25.7634 28.337 25.5 29 25.5C29.663 25.5 30.2989 25.7634 30.7678 26.2322C31.2366 26.7011 31.5 27.337 31.5 28C31.5 28.663 31.2366 29.2989 30.7678 29.7678C30.2989 30.2366 29.663 30.5 29 30.5Z"
            fill="white" />
    </symbol>
    <symbol viewBox="0 0 21 21" id="twitter">
        <path
            d="M3 0.5C1.34531 0.5 0 1.84531 0 3.5V18.5C0 20.1547 1.34531 21.5 3 21.5H18C19.6547 21.5 21 20.1547 21 18.5V3.5C21 1.84531 19.6547 0.5 18 0.5H3ZM16.9266 4.4375L12.0609 9.99688L17.7844 17.5625H13.3031L9.79688 12.9734L5.77969 17.5625H3.55313L8.75625 11.6141L3.26719 4.4375H7.86094L11.0344 8.63281L14.7 4.4375H16.9266ZM15.1547 16.2313L7.19062 5.69844H5.86406L13.9172 16.2313H15.15H15.1547Z"
            fill="#70E000" />
    </symbol>
    <symbol viewBox="0 0 18.74 18.74" id="instagram">
        <path
            d="M10.0001 6.87579C8.2798 6.87579 6.87589 8.2797 6.87589 10C6.87589 11.7203 8.2798 13.1242 10.0001 13.1242C11.7204 13.1242 13.1243 11.7203 13.1243 10C13.1243 8.2797 11.7204 6.87579 10.0001 6.87579ZM19.3704 10C19.3704 8.70626 19.3821 7.42423 19.3095 6.13283C19.2368 4.63283 18.8946 3.30158 17.7978 2.2047C16.6985 1.10548 15.3696 0.765639 13.8696 0.692982C12.5759 0.620326 11.2939 0.632045 10.0025 0.632045C8.7087 0.632045 7.42667 0.620326 6.13527 0.692982C4.63527 0.765639 3.30402 1.10783 2.20714 2.2047C1.10792 3.30392 0.76808 4.63283 0.695424 6.13283C0.622767 7.42658 0.634486 8.70861 0.634486 10C0.634486 11.2914 0.622767 12.5758 0.695424 13.8672C0.76808 15.3672 1.11027 16.6985 2.20714 17.7953C3.30636 18.8945 4.63527 19.2344 6.13527 19.307C7.42902 19.3797 8.71105 19.368 10.0025 19.368C11.2962 19.368 12.5782 19.3797 13.8696 19.307C15.3696 19.2344 16.7009 18.8922 17.7978 17.7953C18.897 16.6961 19.2368 15.3672 19.3095 13.8672C19.3845 12.5758 19.3704 11.2938 19.3704 10ZM10.0001 14.807C7.33995 14.807 5.19308 12.6602 5.19308 10C5.19308 7.33986 7.33995 5.19298 10.0001 5.19298C12.6603 5.19298 14.8071 7.33986 14.8071 10C14.8071 12.6602 12.6603 14.807 10.0001 14.807ZM15.004 6.11876C14.3829 6.11876 13.8814 5.6172 13.8814 4.99611C13.8814 4.37501 14.3829 3.87345 15.004 3.87345C15.6251 3.87345 16.1267 4.37501 16.1267 4.99611C16.1269 5.14359 16.0979 5.28966 16.0416 5.42595C15.9852 5.56224 15.9026 5.68607 15.7983 5.79036C15.694 5.89464 15.5701 5.97733 15.4339 6.03368C15.2976 6.09004 15.1515 6.11895 15.004 6.11876Z"
            fill="#70E000" />

    </symbol>
    <symbol viewBox="0 0 20 20" fill="none" id="facebook">
        <path
            d="M20 10C20 4.48 15.52 0 10 0C4.48 0 0 4.48 0 10C0 14.84 3.44 18.87 8 19.8V13H6V10H8V7.5C8 5.57 9.57 4 11.5 4H14V7H12C11.45 7 11 7.45 11 8V10H14V13H11V19.95C16.05 19.45 20 15.19 20 10Z"
            fill="#70E000" />
    </symbol>
    <symbol viewBox="0 0 18 18" id="linkedin">
        <path
            d="M16 0C16.5304 0 17.0391 0.210714 17.4142 0.585786C17.7893 0.960859 18 1.46957 18 2V16C18 16.5304 17.7893 17.0391 17.4142 17.4142C17.0391 17.7893 16.5304 18 16 18H2C1.46957 18 0.960859 17.7893 0.585786 17.4142C0.210714 17.0391 0 16.5304 0 16V2C0 1.46957 0.210714 0.960859 0.585786 0.585786C0.960859 0.210714 1.46957 0 2 0H16ZM15.5 15.5V10.2C15.5 9.33539 15.1565 8.5062 14.5452 7.89483C13.9338 7.28346 13.1046 6.94 12.24 6.94C11.39 6.94 10.4 7.46 9.92 8.24V7.13H7.13V15.5H9.92V10.57C9.92 9.8 10.54 9.17 11.31 9.17C11.6813 9.17 12.0374 9.3175 12.2999 9.58005C12.5625 9.8426 12.71 10.1987 12.71 10.57V15.5H15.5ZM3.88 5.56C4.32556 5.56 4.75288 5.383 5.06794 5.06794C5.383 4.75288 5.56 4.32556 5.56 3.88C5.56 2.95 4.81 2.19 3.88 2.19C3.43178 2.19 3.00193 2.36805 2.68499 2.68499C2.36805 3.00193 2.19 3.43178 2.19 3.88C2.19 4.81 2.95 5.56 3.88 5.56ZM5.27 15.5V7.13H2.5V15.5H5.27Z"
            fill="#70E000" />
    </symbol>
    <symbol viewBox="0 0 14 10" id="arrow">
        <path d="M1.66634 5L12.333 5M12.333 5L8.33301 9M12.333 5L8.33301 1" stroke="#70E000" stroke-width="1.5"
            stroke-linecap="round" stroke-linejoin="round" />
    </symbol>
    <symbol viewBox="0 0 14 10" id="button-connect">
        <path d="M2 56V18.5743L42 2H180.5V40.4951L141 56H2Z" fill="url(#paint0_linear_315_2)"
            stroke="url(#paint1_linear_315_2)" stroke-width="3" />
        <defs>
            <linearGradient id="paint0_linear_315_2" x1="-6" y1="33.5" x2="189" y2="29" gradientUnits="userSpaceOnUse">
                <stop stop-color="#70E000" />
                <stop offset="0.0320988" stop-color="#CFFF9E" />
                <stop offset="0.296009" stop-color="#70E000" />
                <stop offset="0.575215" stop-color="#70E000" />
                <stop offset="0.760417" stop-color="#C1FF84" />
                <stop offset="1" stop-color="#70E000" />
            </linearGradient>
            <linearGradient id="paint1_linear_315_2" x1="-14" y1="-3.34653" x2="175.987" y2="57.2991"
                gradientUnits="userSpaceOnUse">
                <stop offset="0.0001" stop-color="#70E000" />
                <stop offset="0.536922" stop-color="#004B23" />
                <stop offset="1" stop-color="#008000" stop-opacity="0.4" />
            </linearGradient>
        </defs>
    </symbol>
    <symbol viewBox="0 0 10 14" id="arrow-down">
        <path d="M5.00293 1.66653L5.00293 12.3332M5.00293 12.3332L1.00293 8.33319M5.00293 12.3332L9.00293 8.33319" stroke="#70E000" stroke-width="1.5" stroke-linecap="round" stroke-linejoin="round"/>
    </symbol>
    <symbol viewBox="0 0 18 14" id="button-next">
        <path d="M1 6.99975L17 6.99975M17 6.99975L11 12.9998M17 6.99975L11 0.999752" stroke="white" stroke-width="1.5" stroke-linecap="round" stroke-linejoin="round"/>
    </symbol>
    <symbol viewBox="0 0 18 14" id="button-prev">
       <path d="M17 7.00024H1M1 7.00024L7 1.00024M1 7.00024L7 13.0002" stroke="white" stroke-width="1.5" stroke-linecap="round" stroke-linejoin="round"/> 
    </symbol>
</svg>